<svg width="24" height="24" viewBox="0 0 24 24" xmlns="http://www.w3.org/2000/svg" xmlns:xlink="http://www.w3.org/1999/xlink" fill="none" overflow="hidden"><path d="M5.99 4.929C6.28245 5.22182 6.28245 5.69618 5.99 5.989 2.67049 9.3084 2.67041 14.6903 5.98982 18.0098 5.98988 18.0099 5.98994 18.0099 5.99 18.01 6.27762 18.3081 6.26915 18.7829 5.97107 19.0705 5.6803 19.3511 5.21951 19.3509 4.929 19.07 1.024 15.165 1.024 8.834 4.929 4.929 5.22182 4.63655 5.69618 4.63655 5.989 4.929ZM19.071 4.929C22.976 8.834 22.976 15.165 19.071 19.071 18.768 19.3534 18.2934 19.3366 18.011 19.0336 17.7426 18.7456 17.7426 18.299 18.011 18.011 21.3308 14.6919 21.3313 9.30997 18.0122 5.99018 18.0118 5.98979 18.0114 5.98939 18.011 5.989 17.708 5.70662 17.6912 5.23204 17.9736 4.929 18.256 4.62596 18.7305 4.6092 19.0336 4.89158 19.0465 4.90361 19.059 4.91609 19.071 4.929ZM8.818 7.757C9.11045 8.04982 9.11045 8.52418 8.818 8.817 7.06035 10.5741 7.05989 13.4233 8.81696 15.181 8.81731 15.1813 8.81765 15.1817 8.818 15.182 9.10038 15.485 9.08363 15.9596 8.78058 16.242 8.49255 16.5104 8.04603 16.5104 7.758 16.242 5.41504 13.8989 5.41504 10.1001 7.758 7.757 8.05082 7.46455 8.52518 7.46455 8.818 7.757ZM16.243 7.757C18.586 10.1001 18.586 13.8989 16.243 16.242 15.9554 16.5401 15.4806 16.5485 15.1825 16.2609 14.8844 15.9733 14.876 15.4985 15.1636 15.2004 15.1696 15.1942 15.1758 15.188 15.182 15.182 16.9394 13.4247 16.9394 10.5754 15.182 8.81804 15.182 8.81802 15.182 8.81801 15.182 8.818 14.8996 8.51496 14.9164 8.04038 15.2194 7.758 15.5074 7.48961 15.954 7.48961 16.242 7.758ZM12 10.5C12.8284 10.5 13.5 11.1716 13.5 12 13.5 12.8284 12.8284 13.5 12 13.5 11.1716 13.5 10.5 12.8284 10.5 12 10.5 11.1716 11.1716 10.5 12 10.5Z" fill="#718EFF"/></svg>