<svg width="60" height="60" viewBox="0 0 24 24" xmlns="http://www.w3.org/2000/svg" xmlns:xlink="http://www.w3.org/1999/xlink" overflow="hidden"><g id="Iconly/Light-Outline/Video" fill="none" fill-rule="evenodd"><g id="Video" fill="#000000" transform="translate(2 5)"><path d="M6.08922 0.00138819 6.55956 0.00199185C6.63996 0.0021054 6.72126 0.002225 6.8033 0.00235L7.30317 0.00315967C8.39996 0.0050321 9.5682 0.0076 10.4586 0.00945069L10.8485 0.0102488C10.9098 0.0103716 10.9691 0.0104889 11.0263 0.0106 13.2763-0.1474 15.3073 1.5226 15.4883 3.7636 15.49 3.78659 15.4915 3.91702 15.4927 4.15429L17.5685 2.4543C18.1725 1.9593 18.9855 1.8623 19.6905 2.1953 20.3955 2.5303 20.8335 3.2223 20.8325 4.0023L20.8205 11.3513C20.8195 12.1313 20.3805 12.8233 19.6765 13.1553 19.4005 13.2863 19.1085 13.3493 18.8185 13.3493 18.3675 13.3493 17.9225 13.1943 17.5555 12.8933L15.4973 11.1855C15.4973 11.2145 15.4973 11.2435 15.4973 11.2726 15.5393 12.3286 15.1633 13.3456 14.4373 14.1356 13.6743 14.9666 12.6223 15.4496 11.4763 15.4966 11.4569 15.498 11.3473 15.4989 11.1676 15.4995L10.7725 15.5002C10.6184 15.5003 10.4433 15.5003 10.2516 15.5002L9.40561 15.4994C9.32939 15.4993 9.25196 15.4992 9.17346 15.4991L8.69105 15.4984C7.54169 15.4964 6.24699 15.4934 5.24324 15.4912L4.83214 15.4903C4.70189 15.4901 4.57886 15.4898 4.4643 15.4896 4.3583 15.4976 4.2523 15.5016 4.1463 15.5016 2.0323 15.5026 0.1883 13.8826 0.0143 11.7576L0.0141443 11.7554 0.01321 11.7356C0.01314 11.7335 0.0130686 11.7311 0.0129959 11.7284L0.0123093 11.697C0.0122296 11.6925 0.012149 11.6877 0.0120674 11.6825L0.0113107 11.6242C0.0112244 11.6164 0.0111375 11.6081 0.01105 11.5992L0.01025 11.5047C0.01016 11.4924 0.0100697 11.4796 0.00997926 11.466L0.009435 11.3767C0.00934417 11.3604 0.00925333 11.3434 0.00916259 11.3257L0.00835093 11.1447C0.00826157 11.1221 0.00817259 11.0987 0.00808407 11.0744L0.00730241 10.8308C0.0072175 10.8009 0.00713333 10.77 0.00705 10.7381L0.006325 10.4225C0.0062475 10.3842 0.00617111 10.3447 0.00609593 10.3041L0.00525741 9.75972C0.00519333 9.70939 0.00513083 9.65779 0.00507 9.60487L0.00429407 8.70819C0.00425222 8.64128 0.0042125 8.57288 0.004175 8.50298L0.00416074 4.58505C0.00420361 4.46622 0.00425 4.34542 0.0043 4.2226-0.0437 3.1916 0.3303 2.1676 1.0603 1.3706 1.8223 0.5386 2.8733 0.0536 4.0203 0.0046 4.03574 0.00348889 4.10883 0.00264938 4.22938 0.00204033L4.44454 0.00129444C4.48591 0.00119722 4.52993 0.00111312 4.57643 0.00104149L5.86453 0.00115041C5.9381 0.00122191 6.01305 0.00130139 6.08922 0.00138819ZM11.0803 1.5086C9.81774 1.50677 8.27398 1.50456 6.95656 1.50312L6.26347 1.50242C6.15272 1.50232 6.04459 1.50222 5.93949 1.50214L4.20041 1.50219C4.13497 1.50249 4.09263 1.50293 4.0763 1.5036 3.3383 1.5346 2.6573 1.8476 2.1663 2.3836 1.7083 2.8846 1.4723 3.5246 1.5033 4.1886L1.50413 8.05156C1.50417 8.13684 1.50422 8.22153 1.50427 8.30552L1.50518 9.49956C1.50525 9.57386 1.50533 9.64691 1.50541 9.71862L1.50593 10.1317C1.50602 10.1975 1.50611 10.2618 1.50621 10.3244L1.50718 10.8394C1.50825 11.303 1.5096 11.6037 1.5113 11.6616 1.6253 13.0466 2.9233 14.1056 4.4093 13.9916 4.56644 13.9918 4.72791 13.9921 4.89273 13.9923L5.39626 13.9931C5.82264 13.9938 6.26389 13.9946 6.70483 13.9953L7.23285 13.9962C7.49581 13.9966 7.75648 13.9971 8.01157 13.9975L8.51335 13.9982C8.59542 13.9983 8.67663 13.9984 8.75685 13.9986L9.2254 13.9992C9.3012 13.9993 9.37577 13.9994 9.449 13.9994L11.2144 13.9994C11.3299 13.999 11.4025 13.9984 11.4243 13.9976 12.1593 13.9676 12.8413 13.6556 13.3323 13.1206 13.7913 12.6216 14.0273 11.9816 13.9983 11.3206L13.9974 11.3041 13.9974 11.3041 13.9972 6.46791C13.9972 6.38936 13.9971 6.31183 13.9971 6.23542L13.9963 5.37958C13.9963 5.31394 13.9962 5.24986 13.9961 5.18746L13.9953 4.67407C13.9949 4.52001 13.9946 4.38401 13.9942 4.26906L13.9933 4.06808C13.9927 3.95397 13.9921 3.88079 13.9913 3.8556 13.8783 2.4636 12.5743 1.3916 11.0803 1.5086ZM18.5185 3.6153 15.4969 6.08059C15.497 6.20346 15.4971 6.33118 15.4972 6.46375L15.4979 8.97139 15.4979 8.97139 18.5065 11.7343C18.7275 11.9143 18.9495 11.8403 19.0355 11.7983 19.1215 11.7583 19.3205 11.6333 19.3205 11.3493L19.3325 4.0003C19.3335 3.7163 19.1335 3.5913 19.0475 3.5503 18.9625 3.5103 18.7375 3.4353 18.5185 3.6153Z" id="Combined-Shape" stroke-width="0.571444" fill="#718EFF"/></g></g></svg>